<?xml version="1.0" encoding="UTF-8"?>
<!DOCTYPE svg PUBLIC "-//W3C//DTD SVG 1.1//EN" "http://www.w3.org/Graphics/SVG/1.1/DTD/svg11.dtd">
<svg xmlns="http://www.w3.org/2000/svg" version="1.1" width="1456px" height="331px" style="shape-rendering:geometricPrecision; text-rendering:geometricPrecision; image-rendering:optimizeQuality; fill-rule:evenodd; clip-rule:evenodd" xmlns:xlink="http://www.w3.org/1999/xlink">
<g><path style="opacity:1" fill="#bfd5c9" d="M 76.5,2.5 C 79.0323,4.53292 81.699,6.36625 84.5,8C 83.8391,11.5326 83.5057,15.3659 83.5,19.5C 86.1667,19.5 88.8333,19.5 91.5,19.5C 91.5,22.1667 91.5,24.8333 91.5,27.5C 88.8333,27.5 86.1667,27.5 83.5,27.5C 83.5,30.1667 83.5,32.8333 83.5,35.5C 82.1667,35.5 80.8333,35.5 79.5,35.5C 78.8333,42.8333 74.8333,46.8333 67.5,47.5C 67.5,50.1667 67.5,52.8333 67.5,55.5C 64.8333,55.5 62.1667,55.5 59.5,55.5C 59.5,56.8333 59.5,58.1667 59.5,59.5C 58.1667,59.5 56.8333,59.5 55.5,59.5C 55.5,60.8333 55.5,62.1667 55.5,63.5C 54.1667,63.5 52.8333,63.5 51.5,63.5C 51.5,64.8333 51.5,66.1667 51.5,67.5C 50.1667,67.5 48.8333,67.5 47.5,67.5C 47.5,68.8333 47.5,70.1667 47.5,71.5C 46.1667,71.5 44.8333,71.5 43.5,71.5C 43.5,72.8333 43.5,74.1667 43.5,75.5C 42.1667,75.5 40.8333,75.5 39.5,75.5C 39.5,76.8333 39.5,78.1667 39.5,79.5C 36.7531,79.8134 34.0865,79.48 31.5,78.5C 32.8333,77.8333 34.1667,77.1667 35.5,76.5C 32.9135,75.52 30.2469,75.1866 27.5,75.5C 27.0583,80.6945 26.0583,80.6945 24.5,75.5C 22.9417,80.6945 21.9417,80.6945 21.5,75.5C 20.1667,75.5 18.8333,75.5 17.5,75.5C 17.5842,78.7485 16.7508,81.7485 15,84.5C 14.6232,83.0577 13.7899,82.0577 12.5,81.5C 11.6618,81.1583 11.3284,80.4916 11.5,79.5C 12.1654,75.8632 12.8321,72.1965 13.5,68.5C 15.8052,64.734 19.1386,63.0673 23.5,63.5C 23.3285,61.5082 23.9951,59.8415 25.5,58.5C 28.809,57.2847 32.1423,56.2847 35.5,55.5C 35.5,54.1667 35.5,52.8333 35.5,51.5C 38.1667,51.5 40.8333,51.5 43.5,51.5C 43.4211,49.3337 42.7545,47.3337 41.5,45.5C 42.1667,43.5 43.5,42.1667 45.5,41.5C 47.3337,42.7545 49.3337,43.4211 51.5,43.5C 51.5,42.1667 51.5,40.8333 51.5,39.5C 52.8333,39.5 54.1667,39.5 55.5,39.5C 55.5,38.1667 55.5,36.8333 55.5,35.5C 56.8333,35.5 58.1667,35.5 59.5,35.5C 59.1449,33.1103 58.4783,30.777 57.5,28.5C 57.9966,25.0018 59.9966,23.3351 63.5,23.5C 63.5,22.1667 63.5,20.8333 63.5,19.5C 64.8333,19.5 66.1667,19.5 67.5,19.5C 67.5,15.5 67.5,11.5 67.5,7.5C 69.8695,7.85112 72.2028,8.01779 74.5,8C 75.6034,6.31963 75.2701,4.81963 73.5,3.5C 74.325,2.61432 75.325,2.28099 76.5,2.5 Z"/></g>
<g><path style="opacity:1" fill="#bad0c5" d="M 76.5,1.5 C 83.8662,3.54688 89.8662,7.54688 94.5,13.5C 94.5394,14.5832 94.8728,15.5832 95.5,16.5C 98.3347,18.5726 100.668,21.0726 102.5,24C 101.576,25.15 101.576,26.15 102.5,27C 100.866,27.4935 99.1992,27.6602 97.5,27.5C 96.8333,30.1667 96.1667,32.8333 95.5,35.5C 94.1667,35.5 92.8333,35.5 91.5,35.5C 91.5,38.1667 91.5,40.8333 91.5,43.5C 89.5,43.5 87.5,43.5 85.5,43.5C 85.762,42.0222 85.4287,40.6888 84.5,39.5C 83.5052,44.7921 83.1718,50.1254 83.5,55.5C 80.8333,55.5 78.1667,55.5 75.5,55.5C 75.5,56.8333 75.5,58.1667 75.5,59.5C 74.1667,59.5 72.8333,59.5 71.5,59.5C 71.5,60.8333 71.5,62.1667 71.5,63.5C 70.1667,63.5 68.8333,63.5 67.5,63.5C 67.5,64.8333 67.5,66.1667 67.5,67.5C 64.8333,67.5 62.1667,67.5 59.5,67.5C 59.5,70.1667 59.5,72.8333 59.5,75.5C 60.8333,75.5 62.1667,75.5 63.5,75.5C 63.5,76.8333 63.5,78.1667 63.5,79.5C 62.1667,79.5 60.8333,79.5 59.5,79.5C 59.5,80.8333 59.5,82.1667 59.5,83.5C 56.8333,83.5 54.1667,83.5 51.5,83.5C 51.5,84.8333 51.5,86.1667 51.5,87.5C 48.8333,87.5 46.1667,87.5 43.5,87.5C 43.5,88.8333 43.5,90.1667 43.5,91.5C 42.1667,91.5 40.8333,91.5 39.5,91.5C 39.5,92.8333 39.5,94.1667 39.5,95.5C 40.8333,95.5 42.1667,95.5 43.5,95.5C 43.5,98.1667 43.5,100.833 43.5,103.5C 40.2719,103.299 37.1052,103.633 34,104.5C 31.2914,103.01 31.1247,101.51 33.5,100C 31.5273,99.5045 29.5273,99.3379 27.5,99.5C 27.5,98.1667 27.5,96.8333 27.5,95.5C 25.8333,95.5 24.1667,95.5 22.5,95.5C 17.6972,91.8985 14.3638,87.2318 12.5,81.5C 13.7899,82.0577 14.6232,83.0577 15,84.5C 16.7508,81.7485 17.5842,78.7485 17.5,75.5C 18.8333,75.5 20.1667,75.5 21.5,75.5C 21.9417,80.6945 22.9417,80.6945 24.5,75.5C 26.0583,80.6945 27.0583,80.6945 27.5,75.5C 30.2469,75.1866 32.9135,75.52 35.5,76.5C 34.1667,77.1667 32.8333,77.8333 31.5,78.5C 34.0865,79.48 36.7531,79.8134 39.5,79.5C 39.5,78.1667 39.5,76.8333 39.5,75.5C 40.8333,75.5 42.1667,75.5 43.5,75.5C 43.5,74.1667 43.5,72.8333 43.5,71.5C 44.8333,71.5 46.1667,71.5 47.5,71.5C 47.5,70.1667 47.5,68.8333 47.5,67.5C 48.8333,67.5 50.1667,67.5 51.5,67.5C 51.5,66.1667 51.5,64.8333 51.5,63.5C 52.8333,63.5 54.1667,63.5 55.5,63.5C 55.5,62.1667 55.5,60.8333 55.5,59.5C 56.8333,59.5 58.1667,59.5 59.5,59.5C 59.5,58.1667 59.5,56.8333 59.5,55.5C 62.1667,55.5 64.8333,55.5 67.5,55.5C 67.5,52.8333 67.5,50.1667 67.5,47.5C 74.8333,46.8333 78.8333,42.8333 79.5,35.5C 80.8333,35.5 82.1667,35.5 83.5,35.5C 83.5,32.8333 83.5,30.1667 83.5,27.5C 86.1667,27.5 88.8333,27.5 91.5,27.5C 91.5,24.8333 91.5,22.1667 91.5,19.5C 88.8333,19.5 86.1667,19.5 83.5,19.5C 83.5057,15.3659 83.8391,11.5326 84.5,8C 81.699,6.36625 79.0323,4.53292 76.5,2.5C 76.5,2.16667 76.5,1.83333 76.5,1.5 Z"/></g>
<g><path style="opacity:1" fill="#c6dacf" d="M 24.5,-0.5 C 39.8333,-0.5 55.1667,-0.5 70.5,-0.5C 72.3736,0.285178 74.3736,0.951844 76.5,1.5C 76.5,1.83333 76.5,2.16667 76.5,2.5C 75.325,2.28099 74.325,2.61432 73.5,3.5C 75.2701,4.81963 75.6034,6.31963 74.5,8C 72.2028,8.01779 69.8695,7.85112 67.5,7.5C 67.5,11.5 67.5,15.5 67.5,19.5C 66.1667,19.5 64.8333,19.5 63.5,19.5C 63.5,20.8333 63.5,22.1667 63.5,23.5C 59.9966,23.3351 57.9966,25.0018 57.5,28.5C 58.4783,30.777 59.1449,33.1103 59.5,35.5C 58.1667,35.5 56.8333,35.5 55.5,35.5C 55.5,36.8333 55.5,38.1667 55.5,39.5C 54.1667,39.5 52.8333,39.5 51.5,39.5C 51.5,40.8333 51.5,42.1667 51.5,43.5C 49.3337,43.4211 47.3337,42.7545 45.5,41.5C 43.5,42.1667 42.1667,43.5 41.5,45.5C 42.7545,47.3337 43.4211,49.3337 43.5,51.5C 40.8333,51.5 38.1667,51.5 35.5,51.5C 35.5,52.8333 35.5,54.1667 35.5,55.5C 32.1423,56.2847 28.809,57.2847 25.5,58.5C 23.9951,59.8415 23.3285,61.5082 23.5,63.5C 19.1386,63.0673 15.8052,64.734 13.5,68.5C 12.8321,72.1965 12.1654,75.8632 11.5,79.5C 9.66517,76.158 8.4985,72.4914 8,68.5C 7.33333,51.8333 7.33333,35.1667 8,18.5C 10.1496,9.18821 15.6496,2.85487 24.5,-0.5 Z"/></g>
<g><path style="opacity:1" fill="#b1c8be" d="M 116.5,35.5 C 120.833,39.1667 124.833,43.1667 128.5,47.5C 127.448,47.6495 126.448,47.4828 125.5,47C 123.895,42.3524 121.228,41.5191 117.5,44.5C 112.417,48.1967 110.417,53.1967 111.5,59.5C 110.167,59.5 108.833,59.5 107.5,59.5C 107.5,60.8333 107.5,62.1667 107.5,63.5C 106.167,63.5 104.833,63.5 103.5,63.5C 103.5,64.8333 103.5,66.1667 103.5,67.5C 102.167,67.5 100.833,67.5 99.5,67.5C 99.5,68.8333 99.5,70.1667 99.5,71.5C 98.1667,71.5 96.8333,71.5 95.5,71.5C 95.5,72.8333 95.5,74.1667 95.5,75.5C 94.1667,75.5 92.8333,75.5 91.5,75.5C 91.5,76.8333 91.5,78.1667 91.5,79.5C 90.1667,79.5 88.8333,79.5 87.5,79.5C 87.5,80.8333 87.5,82.1667 87.5,83.5C 86.1667,83.5 84.8333,83.5 83.5,83.5C 83.5,86.1667 83.5,88.8333 83.5,91.5C 80.8333,91.5 78.1667,91.5 75.5,91.5C 75.5,92.8333 75.5,94.1667 75.5,95.5C 76.8333,95.5 78.1667,95.5 79.5,95.5C 79.5,96.8333 79.5,98.1667 79.5,99.5C 78.1667,99.5 76.8333,99.5 75.5,99.5C 75.5,100.833 75.5,102.167 75.5,103.5C 74.1667,103.5 72.8333,103.5 71.5,103.5C 71.5,104.833 71.5,106.167 71.5,107.5C 70.1667,107.5 68.8333,107.5 67.5,107.5C 67.5,108.833 67.5,110.167 67.5,111.5C 66.1667,111.5 64.8333,111.5 63.5,111.5C 63.5,112.833 63.5,114.167 63.5,115.5C 62.1667,115.5 60.8333,115.5 59.5,115.5C 59.5,118.167 59.5,120.833 59.5,123.5C 56.6146,123.194 53.9479,123.527 51.5,124.5C 48.5726,123.243 46.2393,121.243 44.5,118.5C 44.6399,116.876 43.9733,115.71 42.5,115C 43.435,112.619 43.7683,110.119 43.5,107.5C 44.8333,107.5 46.1667,107.5 47.5,107.5C 47.5,106.167 47.5,104.833 47.5,103.5C 48.8333,103.5 50.1667,103.5 51.5,103.5C 51.5,102.167 51.5,100.833 51.5,99.5C 52.8333,99.5 54.1667,99.5 55.5,99.5C 55.5,98.1667 55.5,96.8333 55.5,95.5C 56.8333,95.5 58.1667,95.5 59.5,95.5C 60.1667,92.8333 60.8333,90.1667 61.5,87.5C 62.8333,87.5 64.1667,87.5 65.5,87.5C 66.1667,84.8333 66.8333,82.1667 67.5,79.5C 68.8333,79.5 70.1667,79.5 71.5,79.5C 71.5,78.1667 71.5,76.8333 71.5,75.5C 72.8333,75.5 74.1667,75.5 75.5,75.5C 75.5,72.8333 75.5,70.1667 75.5,67.5C 78.1667,67.5 80.8333,67.5 83.5,67.5C 83.5,66.1667 83.5,64.8333 83.5,63.5C 84.8333,63.5 86.1667,63.5 87.5,63.5C 87.5,62.1667 87.5,60.8333 87.5,59.5C 88.8333,59.5 90.1667,59.5 91.5,59.5C 91.5,58.1667 91.5,56.8333 91.5,55.5C 92.8333,55.5 94.1667,55.5 95.5,55.5C 95.5,52.8333 95.5,50.1667 95.5,47.5C 96.8333,47.5 98.1667,47.5 99.5,47.5C 99.5,46.1667 99.5,44.8333 99.5,43.5C 102.167,43.5 104.833,43.5 107.5,43.5C 107.336,40.8127 107.503,38.146 108,35.5C 110.621,35.7036 113.455,35.7036 116.5,35.5 Z"/></g>
<g><path style="opacity:1" fill="#b6ccc3" d="M 94.5,13.5 C 102.167,20.5 109.5,27.8333 116.5,35.5C 113.455,35.7036 110.621,35.7036 108,35.5C 107.503,38.146 107.336,40.8127 107.5,43.5C 104.833,43.5 102.167,43.5 99.5,43.5C 99.5,44.8333 99.5,46.1667 99.5,47.5C 98.1667,47.5 96.8333,47.5 95.5,47.5C 95.5,50.1667 95.5,52.8333 95.5,55.5C 94.1667,55.5 92.8333,55.5 91.5,55.5C 91.5,56.8333 91.5,58.1667 91.5,59.5C 90.1667,59.5 88.8333,59.5 87.5,59.5C 87.5,60.8333 87.5,62.1667 87.5,63.5C 86.1667,63.5 84.8333,63.5 83.5,63.5C 83.5,64.8333 83.5,66.1667 83.5,67.5C 80.8333,67.5 78.1667,67.5 75.5,67.5C 75.5,70.1667 75.5,72.8333 75.5,75.5C 74.1667,75.5 72.8333,75.5 71.5,75.5C 71.5,76.8333 71.5,78.1667 71.5,79.5C 70.1667,79.5 68.8333,79.5 67.5,79.5C 66.8333,82.1667 66.1667,84.8333 65.5,87.5C 64.1667,87.5 62.8333,87.5 61.5,87.5C 60.8333,90.1667 60.1667,92.8333 59.5,95.5C 58.1667,95.5 56.8333,95.5 55.5,95.5C 55.5,96.8333 55.5,98.1667 55.5,99.5C 54.1667,99.5 52.8333,99.5 51.5,99.5C 51.5,100.833 51.5,102.167 51.5,103.5C 50.1667,103.5 48.8333,103.5 47.5,103.5C 47.5,104.833 47.5,106.167 47.5,107.5C 46.1667,107.5 44.8333,107.5 43.5,107.5C 43.7683,110.119 43.435,112.619 42.5,115C 43.9733,115.71 44.6399,116.876 44.5,118.5C 36.4651,111.466 29.1317,103.799 22.5,95.5C 24.1667,95.5 25.8333,95.5 27.5,95.5C 27.5,96.8333 27.5,98.1667 27.5,99.5C 29.5273,99.3379 31.5273,99.5045 33.5,100C 31.1247,101.51 31.2914,103.01 34,104.5C 37.1052,103.633 40.2719,103.299 43.5,103.5C 43.5,100.833 43.5,98.1667 43.5,95.5C 42.1667,95.5 40.8333,95.5 39.5,95.5C 39.5,94.1667 39.5,92.8333 39.5,91.5C 40.8333,91.5 42.1667,91.5 43.5,91.5C 43.5,90.1667 43.5,88.8333 43.5,87.5C 46.1667,87.5 48.8333,87.5 51.5,87.5C 51.5,86.1667 51.5,84.8333 51.5,83.5C 54.1667,83.5 56.8333,83.5 59.5,83.5C 59.5,82.1667 59.5,80.8333 59.5,79.5C 60.8333,79.5 62.1667,79.5 63.5,79.5C 63.5,78.1667 63.5,76.8333 63.5,75.5C 62.1667,75.5 60.8333,75.5 59.5,75.5C 59.5,72.8333 59.5,70.1667 59.5,67.5C 62.1667,67.5 64.8333,67.5 67.5,67.5C 67.5,66.1667 67.5,64.8333 67.5,63.5C 68.8333,63.5 70.1667,63.5 71.5,63.5C 71.5,62.1667 71.5,60.8333 71.5,59.5C 72.8333,59.5 74.1667,59.5 75.5,59.5C 75.5,58.1667 75.5,56.8333 75.5,55.5C 78.1667,55.5 80.8333,55.5 83.5,55.5C 83.1718,50.1254 83.5052,44.7921 84.5,39.5C 85.4287,40.6888 85.762,42.0222 85.5,43.5C 87.5,43.5 89.5,43.5 91.5,43.5C 91.5,40.8333 91.5,38.1667 91.5,35.5C 92.8333,35.5 94.1667,35.5 95.5,35.5C 96.1667,32.8333 96.8333,30.1667 97.5,27.5C 99.1992,27.6602 100.866,27.4935 102.5,27C 101.576,26.15 101.576,25.15 102.5,24C 100.668,21.0726 98.3347,18.5726 95.5,16.5C 94.8728,15.5832 94.5394,14.5832 94.5,13.5 Z"/></g>
<g><path style="opacity:0.999" fill="#abc3b9" d="M 128.5,47.5 C 129.167,47.5 129.5,47.8333 129.5,48.5C 129.5,50.5 129.5,52.5 129.5,54.5C 131.199,54.3398 132.866,54.5065 134.5,55C 131.518,55.498 128.518,55.6646 125.5,55.5C 124.833,58.1667 124.167,60.8333 123.5,63.5C 120.833,63.5 118.167,63.5 115.5,63.5C 117.167,70.5 114.5,73.1667 107.5,71.5C 107.012,74.7107 107.679,77.544 109.5,80C 107.389,80.8447 105.389,81.678 103.5,82.5C 100.865,83.4735 98.865,85.1402 97.5,87.5C 96.5176,91.3164 95.8509,95.3164 95.5,99.5C 94.1667,99.5 92.8333,99.5 91.5,99.5C 91.5,100.833 91.5,102.167 91.5,103.5C 88.8333,103.5 86.1667,103.5 83.5,103.5C 83.5,106.167 83.5,108.833 83.5,111.5C 82.1667,111.5 80.8333,111.5 79.5,111.5C 79.5,112.833 79.5,114.167 79.5,115.5C 78.1667,115.5 76.8333,115.5 75.5,115.5C 75.5,116.833 75.5,118.167 75.5,119.5C 74.1667,119.5 72.8333,119.5 71.5,119.5C 71.5,120.833 71.5,122.167 71.5,123.5C 70.1667,123.5 68.8333,123.5 67.5,123.5C 66.523,126.802 65.523,130.135 64.5,133.5C 64.2528,134.713 63.5862,135.38 62.5,135.5C 58.5,132.167 54.8333,128.5 51.5,124.5C 53.9479,123.527 56.6146,123.194 59.5,123.5C 59.5,120.833 59.5,118.167 59.5,115.5C 60.8333,115.5 62.1667,115.5 63.5,115.5C 63.5,114.167 63.5,112.833 63.5,111.5C 64.8333,111.5 66.1667,111.5 67.5,111.5C 67.5,110.167 67.5,108.833 67.5,107.5C 68.8333,107.5 70.1667,107.5 71.5,107.5C 71.5,106.167 71.5,104.833 71.5,103.5C 72.8333,103.5 74.1667,103.5 75.5,103.5C 75.5,102.167 75.5,100.833 75.5,99.5C 76.8333,99.5 78.1667,99.5 79.5,99.5C 79.5,98.1667 79.5,96.8333 79.5,95.5C 78.1667,95.5 76.8333,95.5 75.5,95.5C 75.5,94.1667 75.5,92.8333 75.5,91.5C 78.1667,91.5 80.8333,91.5 83.5,91.5C 83.5,88.8333 83.5,86.1667 83.5,83.5C 84.8333,83.5 86.1667,83.5 87.5,83.5C 87.5,82.1667 87.5,80.8333 87.5,79.5C 88.8333,79.5 90.1667,79.5 91.5,79.5C 91.5,78.1667 91.5,76.8333 91.5,75.5C 92.8333,75.5 94.1667,75.5 95.5,75.5C 95.5,74.1667 95.5,72.8333 95.5,71.5C 96.8333,71.5 98.1667,71.5 99.5,71.5C 99.5,70.1667 99.5,68.8333 99.5,67.5C 100.833,67.5 102.167,67.5 103.5,67.5C 103.5,66.1667 103.5,64.8333 103.5,63.5C 104.833,63.5 106.167,63.5 107.5,63.5C 107.5,62.1667 107.5,60.8333 107.5,59.5C 108.833,59.5 110.167,59.5 111.5,59.5C 110.417,53.1967 112.417,48.1967 117.5,44.5C 121.228,41.5191 123.895,42.3524 125.5,47C 126.448,47.4828 127.448,47.6495 128.5,47.5 Z"/></g>
<g><path style="opacity:1" fill="#a6beb5" d="M 129.5,48.5 C 136.203,54.2023 142.203,60.5356 147.5,67.5C 147.5,68.1667 147.5,68.8333 147.5,69.5C 144.201,68.0184 142.034,66.0184 141,63.5C 139.394,65.984 137.894,65.984 136.5,63.5C 135.571,64.6888 135.238,66.0222 135.5,67.5C 134.167,67.5 132.833,67.5 131.5,67.5C 131.5,70.1667 131.5,72.8333 131.5,75.5C 130.167,75.5 128.833,75.5 127.5,75.5C 127.5,76.8333 127.5,78.1667 127.5,79.5C 126.167,79.5 124.833,79.5 123.5,79.5C 123.5,82.1667 123.5,84.8333 123.5,87.5C 121.473,87.3379 119.473,87.5045 117.5,88C 118.449,91.8503 118.116,95.6837 116.5,99.5C 115.818,98.7573 115.151,98.0906 114.5,97.5C 114.795,95.2646 114.461,93.2646 113.5,91.5C 113.335,85.0022 110.002,82.0022 103.5,82.5C 105.389,81.678 107.389,80.8447 109.5,80C 107.679,77.544 107.012,74.7107 107.5,71.5C 114.5,73.1667 117.167,70.5 115.5,63.5C 118.167,63.5 120.833,63.5 123.5,63.5C 124.167,60.8333 124.833,58.1667 125.5,55.5C 128.518,55.6646 131.518,55.498 134.5,55C 132.866,54.5065 131.199,54.3398 129.5,54.5C 129.5,52.5 129.5,50.5 129.5,48.5 Z"/></g>
<g><path style="opacity:1" fill="#a0b8b1" d="M 147.5,69.5 C 148.315,70.8366 149.482,71.8366 151,72.5C 151.494,74.1341 151.66,75.8008 151.5,77.5C 148.068,77.7573 144.734,78.424 141.5,79.5C 140.833,82.1667 140.167,84.8333 139.5,87.5C 138.167,87.5 136.833,87.5 135.5,87.5C 135.5,88.8333 135.5,90.1667 135.5,91.5C 134.167,91.5 132.833,91.5 131.5,91.5C 131.577,94.0124 130.577,96.0124 128.5,97.5C 127.526,99.7427 127.192,102.076 127.5,104.5C 126.167,104.5 124.833,104.5 123.5,104.5C 123.5,108.167 123.5,111.833 123.5,115.5C 122.167,115.5 120.833,115.5 119.5,115.5C 119.41,120.389 118.244,120.723 116,116.5C 115.103,110.194 114.603,103.861 114.5,97.5C 115.151,98.0906 115.818,98.7573 116.5,99.5C 118.116,95.6837 118.449,91.8503 117.5,88C 119.473,87.5045 121.473,87.3379 123.5,87.5C 123.5,84.8333 123.5,82.1667 123.5,79.5C 124.833,79.5 126.167,79.5 127.5,79.5C 127.5,78.1667 127.5,76.8333 127.5,75.5C 128.833,75.5 130.167,75.5 131.5,75.5C 131.5,72.8333 131.5,70.1667 131.5,67.5C 132.833,67.5 134.167,67.5 135.5,67.5C 135.238,66.0222 135.571,64.6888 136.5,63.5C 137.894,65.984 139.394,65.984 141,63.5C 142.034,66.0184 144.201,68.0184 147.5,69.5 Z"/></g>
<g><path style="opacity:0.998" fill="#9ab1ac" d="M 147.5,67.5 C 157.167,76.5 166.5,85.8333 175.5,95.5C 174.448,95.6495 173.448,95.4828 172.5,95C 168.279,90.7792 164.113,86.6126 160,82.5C 159.502,85.4816 159.335,88.4816 159.5,91.5C 156.833,91.5 154.167,91.5 151.5,91.5C 151.5,94.1667 151.5,96.8333 151.5,99.5C 150.167,99.5 148.833,99.5 147.5,99.5C 147.5,102.167 147.5,104.833 147.5,107.5C 146.167,107.5 144.833,107.5 143.5,107.5C 143.5,108.833 143.5,110.167 143.5,111.5C 142.167,111.5 140.833,111.5 139.5,111.5C 138.167,115.5 136.833,119.5 135.5,123.5C 134.167,123.5 132.833,123.5 131.5,123.5C 131.5,124.833 131.5,126.167 131.5,127.5C 132.833,127.5 134.167,127.5 135.5,127.5C 135.5,129.5 135.5,131.5 135.5,133.5C 131.5,134.833 127.5,136.167 123.5,137.5C 123.5,138.833 123.5,140.167 123.5,141.5C 121.517,141.157 120.183,141.824 119.5,143.5C 115.502,137.538 113.336,130.872 113,123.5C 113.196,112.851 113.362,102.184 113.5,91.5C 114.461,93.2646 114.795,95.2646 114.5,97.5C 114.603,103.861 115.103,110.194 116,116.5C 118.244,120.723 119.41,120.389 119.5,115.5C 120.833,115.5 122.167,115.5 123.5,115.5C 123.5,111.833 123.5,108.167 123.5,104.5C 124.833,104.5 126.167,104.5 127.5,104.5C 127.192,102.076 127.526,99.7427 128.5,97.5C 130.577,96.0124 131.577,94.0124 131.5,91.5C 132.833,91.5 134.167,91.5 135.5,91.5C 135.5,90.1667 135.5,88.8333 135.5,87.5C 136.833,87.5 138.167,87.5 139.5,87.5C 140.167,84.8333 140.833,82.1667 141.5,79.5C 144.734,78.424 148.068,77.7573 151.5,77.5C 151.66,75.8008 151.494,74.1341 151,72.5C 149.482,71.8366 148.315,70.8366 147.5,69.5C 147.5,68.8333 147.5,68.1667 147.5,67.5 Z"/></g>
<g><path style="opacity:0.998" fill="#92aca6" d="M 175.5,95.5 C 177.5,96.8333 179.167,98.5 180.5,100.5C 179.549,101.919 179.216,103.585 179.5,105.5C 176.67,105.306 174.004,104.639 171.5,103.5C 171.5,104.833 171.5,106.167 171.5,107.5C 168.833,107.5 166.167,107.5 163.5,107.5C 163.5,111.5 163.5,115.5 163.5,119.5C 162.167,119.5 160.833,119.5 159.5,119.5C 159.5,120.833 159.5,122.167 159.5,123.5C 158.167,123.5 156.833,123.5 155.5,123.5C 155.5,124.833 155.5,126.167 155.5,127.5C 154.167,127.5 152.833,127.5 151.5,127.5C 151.5,130.167 151.5,132.833 151.5,135.5C 150.167,135.5 148.833,135.5 147.5,135.5C 147.5,138.167 147.5,140.833 147.5,143.5C 146.167,143.5 144.833,143.5 143.5,143.5C 143.5,146.167 143.5,148.833 143.5,151.5C 142.167,151.5 140.833,151.5 139.5,151.5C 139.5,154.167 139.5,156.833 139.5,159.5C 138.167,159.5 136.833,159.5 135.5,159.5C 128.5,155.833 123.167,150.5 119.5,143.5C 120.183,141.824 121.517,141.157 123.5,141.5C 123.5,140.167 123.5,138.833 123.5,137.5C 127.5,136.167 131.5,134.833 135.5,133.5C 135.5,131.5 135.5,129.5 135.5,127.5C 134.167,127.5 132.833,127.5 131.5,127.5C 131.5,126.167 131.5,124.833 131.5,123.5C 132.833,123.5 134.167,123.5 135.5,123.5C 136.833,119.5 138.167,115.5 139.5,111.5C 140.833,111.5 142.167,111.5 143.5,111.5C 143.5,110.167 143.5,108.833 143.5,107.5C 144.833,107.5 146.167,107.5 147.5,107.5C 147.5,104.833 147.5,102.167 147.5,99.5C 148.833,99.5 150.167,99.5 151.5,99.5C 151.5,96.8333 151.5,94.1667 151.5,91.5C 154.167,91.5 156.833,91.5 159.5,91.5C 159.335,88.4816 159.502,85.4816 160,82.5C 164.113,86.6126 168.279,90.7792 172.5,95C 173.448,95.4828 174.448,95.6495 175.5,95.5 Z"/></g>
<g><path style="opacity:0.995" fill="#5d6564" d="M 384.5,94.5 C 424.167,94.5 463.833,94.5 503.5,94.5C 503.5,103.833 503.5,113.167 503.5,122.5C 465.499,122.333 427.499,122.5 389.5,123C 385.763,124.281 383.263,126.781 382,130.5C 381.333,136.167 381.333,141.833 382,147.5C 383.5,150.333 385.667,152.5 388.5,154C 417.785,155.301 447.119,155.968 476.5,156C 498.127,162.554 508.794,177.221 508.5,200C 507.969,225.195 495.302,239.862 470.5,244C 432.501,244.5 394.501,244.667 356.5,244.5C 356.5,234.833 356.5,225.167 356.5,215.5C 394.835,215.667 433.168,215.5 471.5,215C 475.085,213.084 477.585,210.251 479,206.5C 480.127,200.245 479.46,194.245 477,188.5C 475.363,186.19 473.196,184.69 470.5,184C 442.833,183.667 415.167,183.333 387.5,183C 363.952,177.954 351.952,163.288 351.5,139C 351.756,115.944 362.756,101.11 384.5,94.5 Z"/></g>
<g><path style="opacity:0.996" fill="#5d6564" d="M 975.5,94.5 C 1014.5,94.3333 1053.5,94.5 1092.5,95C 1115.33,100.5 1129.5,114.667 1135,137.5C 1135.67,158.5 1135.67,179.5 1135,200.5C 1129.73,224.773 1114.89,239.273 1090.5,244C 1052.17,244.5 1013.83,244.667 975.5,244.5C 975.5,194.5 975.5,144.5 975.5,94.5 Z M 1004.5,122.5 C 1030.84,122.333 1057.17,122.5 1083.5,123C 1096.45,126.279 1104.28,134.446 1107,147.5C 1107.67,162.167 1107.67,176.833 1107,191.5C 1104.43,202.405 1097.93,209.905 1087.5,214C 1059.88,215.466 1032.22,215.966 1004.5,215.5C 1004.5,184.5 1004.5,153.5 1004.5,122.5 Z"/></g>
<g><path style="opacity:0.997" fill="#5d6564" d="M 1340.5,94.5 C 1358.5,94.5 1376.5,94.5 1394.5,94.5C 1394.5,144.5 1394.5,194.5 1394.5,244.5C 1384.83,244.5 1375.17,244.5 1365.5,244.5C 1365.5,203.833 1365.5,163.167 1365.5,122.5C 1360.16,122.334 1354.82,122.501 1349.5,123C 1347.71,123.785 1346.21,124.951 1345,126.5C 1320.03,165.634 1294.86,204.634 1269.5,243.5C 1258.18,244.666 1246.85,244.832 1235.5,244C 1264.79,198.585 1293.96,153.085 1323,107.5C 1327.58,101.41 1333.41,97.077 1340.5,94.5 Z"/></g>
<g><path style="opacity:0.995" fill="#5d6564" d="M 663.5,94.5 C 674.187,94.168 684.854,94.5013 695.5,95.5C 680.916,119.003 666.083,142.336 651,165.5C 650.088,169.452 650.755,173.119 653,176.5C 667.957,198.763 682.123,221.429 695.5,244.5C 684.813,244.832 674.146,244.499 663.5,243.5C 652.667,226.5 641.833,209.5 631,192.5C 627.211,187.692 622.378,184.525 616.5,183C 604.171,182.5 591.838,182.333 579.5,182.5C 579.5,173.833 579.5,165.167 579.5,156.5C 590.172,156.667 600.839,156.5 611.5,156C 620.497,155.92 627.331,152.087 632,144.5C 642.724,127.949 653.224,111.283 663.5,94.5 Z"/></g>
<g><path style="opacity:1" fill="#5a6763" d="M 724.5,97.5 C 728.197,99.2341 729.864,102.234 729.5,106.5C 728.693,150.49 728.193,194.49 728,238.5C 727.667,239.5 727.333,240.5 727,241.5C 726.148,240.429 725.315,239.429 724.5,238.5C 724.5,191.5 724.5,144.5 724.5,97.5 Z"/></g>
<g><path style="opacity:0.999" fill="#5d6564" d="M 783.5,94.5 C 792.833,94.5 802.167,94.5 811.5,94.5C 811.333,131.835 811.5,169.168 812,206.5C 813.5,210.667 816.333,213.5 820.5,215C 861.499,215.5 902.499,215.667 943.5,215.5C 943.5,225.167 943.5,234.833 943.5,244.5C 901.499,244.667 859.499,244.5 817.5,244C 799.438,240.271 788.271,229.438 784,211.5C 783.5,172.501 783.333,133.501 783.5,94.5 Z"/></g>
<g><path style="opacity:1" fill="#5b6663" d="M 1427.5,233.5 C 1427.5,189.5 1427.5,145.5 1427.5,101.5C 1428.16,100.282 1428.83,98.9492 1429.5,97.5C 1432.64,99.6533 1433.97,102.653 1433.5,106.5C 1432.69,150.49 1432.19,194.49 1432,238.5C 1431.67,239.5 1431.33,240.5 1431,241.5C 1429.28,238.975 1428.11,236.308 1427.5,233.5 Z"/></g>
<g><path style="opacity:1" fill="#5d6565" d="M 565.5,95.5 C 561.5,95.5 557.5,95.5 553.5,95.5C 553.187,98.2469 553.52,100.914 554.5,103.5C 555.429,102.311 555.762,100.978 555.5,99.5C 556.833,99.5 558.167,99.5 559.5,99.5C 559.5,102.167 559.5,104.833 559.5,107.5C 560.833,107.5 562.167,107.5 563.5,107.5C 563.5,108.833 563.5,110.167 563.5,111.5C 562.167,111.5 560.833,111.5 559.5,111.5C 559.5,154.167 559.5,196.833 559.5,239.5C 554.167,239.5 548.833,239.5 543.5,239.5C 543.5,196.833 543.5,154.167 543.5,111.5C 544.833,111.5 546.167,111.5 547.5,111.5C 549.126,104.122 546.459,101.789 539.5,104.5C 537.467,106.452 537.134,108.618 538.5,111C 537.906,111.464 537.239,111.631 536.5,111.5C 536.5,105.833 536.5,100.167 536.5,94.5C 546.348,94.1729 556.014,94.5062 565.5,95.5 Z"/></g>
<g><path style="opacity:1" fill="#5d6564" d="M 724.5,238.5 C 725.315,239.429 726.148,240.429 727,241.5C 727.333,240.5 727.667,239.5 728,238.5C 728.193,194.49 728.693,150.49 729.5,106.5C 729.864,102.234 728.197,99.2341 724.5,97.5C 724.5,96.5 724.5,95.5 724.5,94.5C 733.833,94.5 743.167,94.5 752.5,94.5C 752.5,144.5 752.5,194.5 752.5,244.5C 743.167,244.5 733.833,244.5 724.5,244.5C 724.5,242.5 724.5,240.5 724.5,238.5 Z"/></g>
<g><path style="opacity:0.997" fill="#8da6a2" d="M 180.5,100.5 C 186.167,105.5 191.5,110.833 196.5,116.5C 195.833,116.5 195.5,116.833 195.5,117.5C 193.858,115.919 191.858,115.253 189.5,115.5C 189.5,116.833 189.5,118.167 189.5,119.5C 184.833,119.5 180.167,119.5 175.5,119.5C 175.5,120.833 175.5,122.167 175.5,123.5C 174.167,123.5 172.833,123.5 171.5,123.5C 171.5,124.833 171.5,126.167 171.5,127.5C 174.833,127.5 178.167,127.5 181.5,127.5C 181.5,130.167 181.5,132.833 181.5,135.5C 178.167,135.5 174.833,135.5 171.5,135.5C 171.366,139.302 172.033,142.968 173.5,146.5C 172.436,150.539 169.77,152.206 165.5,151.5C 165.012,154.711 165.679,157.544 167.5,160C 157.036,162.109 157.036,163.776 167.5,165C 168.056,165.383 168.389,165.883 168.5,166.5C 162.2,165.793 155.867,165.293 149.5,165C 144.388,164.024 139.722,162.191 135.5,159.5C 136.833,159.5 138.167,159.5 139.5,159.5C 139.5,156.833 139.5,154.167 139.5,151.5C 140.833,151.5 142.167,151.5 143.5,151.5C 143.5,148.833 143.5,146.167 143.5,143.5C 144.833,143.5 146.167,143.5 147.5,143.5C 147.5,140.833 147.5,138.167 147.5,135.5C 148.833,135.5 150.167,135.5 151.5,135.5C 151.5,132.833 151.5,130.167 151.5,127.5C 152.833,127.5 154.167,127.5 155.5,127.5C 155.5,126.167 155.5,124.833 155.5,123.5C 156.833,123.5 158.167,123.5 159.5,123.5C 159.5,122.167 159.5,120.833 159.5,119.5C 160.833,119.5 162.167,119.5 163.5,119.5C 163.5,115.5 163.5,111.5 163.5,107.5C 166.167,107.5 168.833,107.5 171.5,107.5C 171.5,106.167 171.5,104.833 171.5,103.5C 174.004,104.639 176.67,105.306 179.5,105.5C 179.216,103.585 179.549,101.919 180.5,100.5 Z"/></g>
<g><path style="opacity:1" fill="#5d6562" d="M 565.5,95.5 C 565.5,145.167 565.5,194.833 565.5,244.5C 555.833,244.5 546.167,244.5 536.5,244.5C 536.5,200.167 536.5,155.833 536.5,111.5C 537.239,111.631 537.906,111.464 538.5,111C 537.134,108.618 537.467,106.452 539.5,104.5C 546.459,101.789 549.126,104.122 547.5,111.5C 546.167,111.5 544.833,111.5 543.5,111.5C 543.5,154.167 543.5,196.833 543.5,239.5C 548.833,239.5 554.167,239.5 559.5,239.5C 559.5,196.833 559.5,154.167 559.5,111.5C 560.833,111.5 562.167,111.5 563.5,111.5C 563.5,110.167 563.5,108.833 563.5,107.5C 562.167,107.5 560.833,107.5 559.5,107.5C 559.5,104.833 559.5,102.167 559.5,99.5C 558.167,99.5 556.833,99.5 555.5,99.5C 555.762,100.978 555.429,102.311 554.5,103.5C 553.52,100.914 553.187,98.2469 553.5,95.5C 557.5,95.5 561.5,95.5 565.5,95.5 Z"/></g>
<g><path style="opacity:0.994" fill="#5d6563" d="M 1455.5,94.5 C 1455.5,98.8333 1455.5,103.167 1455.5,107.5C 1454.57,108.568 1454.23,109.901 1454.5,111.5C 1453.5,111.5 1452.5,111.5 1451.5,111.5C 1451.5,116.833 1451.5,122.167 1451.5,127.5C 1450.18,127.33 1449.01,127.663 1448,128.5C 1447.5,166.499 1447.33,204.499 1447.5,242.5C 1446.17,242.5 1444.83,242.5 1443.5,242.5C 1443.5,241.5 1443.5,240.5 1443.5,239.5C 1442.17,239.5 1440.83,239.5 1439.5,239.5C 1439.5,241.167 1439.5,242.833 1439.5,244.5C 1435.5,244.5 1431.5,244.5 1427.5,244.5C 1427.5,240.833 1427.5,237.167 1427.5,233.5C 1428.11,236.308 1429.28,238.975 1431,241.5C 1431.33,240.5 1431.67,239.5 1432,238.5C 1432.19,194.49 1432.69,150.49 1433.5,106.5C 1433.97,102.653 1432.64,99.6533 1429.5,97.5C 1428.83,98.9492 1428.16,100.282 1427.5,101.5C 1427.5,99.1667 1427.5,96.8333 1427.5,94.5C 1436.83,94.5 1446.17,94.5 1455.5,94.5 Z"/></g>
<g><path style="opacity:1" fill="#5e6464" d="M 1455.5,107.5 C 1455.5,153.167 1455.5,198.833 1455.5,244.5C 1450.17,244.5 1444.83,244.5 1439.5,244.5C 1439.5,242.833 1439.5,241.167 1439.5,239.5C 1440.83,239.5 1442.17,239.5 1443.5,239.5C 1443.5,240.5 1443.5,241.5 1443.5,242.5C 1444.83,242.5 1446.17,242.5 1447.5,242.5C 1447.33,204.499 1447.5,166.499 1448,128.5C 1449.01,127.663 1450.18,127.33 1451.5,127.5C 1451.5,122.167 1451.5,116.833 1451.5,111.5C 1452.5,111.5 1453.5,111.5 1454.5,111.5C 1454.23,109.901 1454.57,108.568 1455.5,107.5 Z"/></g>
<g><path style="opacity:0.999" fill="#87a39e" d="M 195.5,117.5 C 195.56,120.635 195.727,123.969 196,127.5C 197.188,126.437 197.688,125.103 197.5,123.5C 200.55,122.923 202.55,124.09 203.5,127C 202.692,128.706 201.359,129.539 199.5,129.5C 199.5,134.167 199.5,138.833 199.5,143.5C 196.833,143.5 194.167,143.5 191.5,143.5C 191.5,146.167 191.5,148.833 191.5,151.5C 186.833,151.5 182.167,151.5 177.5,151.5C 177.073,154.788 177.74,157.788 179.5,160.5C 182.785,161.324 186.118,161.824 189.5,162C 184.909,163.053 180.242,163.886 175.5,164.5C 174.398,165.176 173.398,165.842 172.5,166.5C 171.167,166.5 169.833,166.5 168.5,166.5C 168.389,165.883 168.056,165.383 167.5,165C 157.036,163.776 157.036,162.109 167.5,160C 165.679,157.544 165.012,154.711 165.5,151.5C 169.77,152.206 172.436,150.539 173.5,146.5C 172.033,142.968 171.366,139.302 171.5,135.5C 174.833,135.5 178.167,135.5 181.5,135.5C 181.5,132.833 181.5,130.167 181.5,127.5C 178.167,127.5 174.833,127.5 171.5,127.5C 171.5,126.167 171.5,124.833 171.5,123.5C 172.833,123.5 174.167,123.5 175.5,123.5C 175.5,122.167 175.5,120.833 175.5,119.5C 180.167,119.5 184.833,119.5 189.5,119.5C 189.5,118.167 189.5,116.833 189.5,115.5C 191.858,115.253 193.858,115.919 195.5,117.5 Z"/></g>
<g><path style="opacity:0.995" fill="#a3bbb3" d="M 97.5,87.5 C 97.733,110.85 97.233,134.183 96,157.5C 93.4209,159.347 90.5876,159.847 87.5,159C 78.9692,151.3 70.6358,143.467 62.5,135.5C 63.5862,135.38 64.2528,134.713 64.5,133.5C 65.523,130.135 66.523,126.802 67.5,123.5C 68.8333,123.5 70.1667,123.5 71.5,123.5C 71.5,122.167 71.5,120.833 71.5,119.5C 72.8333,119.5 74.1667,119.5 75.5,119.5C 75.5,118.167 75.5,116.833 75.5,115.5C 76.8333,115.5 78.1667,115.5 79.5,115.5C 79.5,114.167 79.5,112.833 79.5,111.5C 80.8333,111.5 82.1667,111.5 83.5,111.5C 83.5,108.833 83.5,106.167 83.5,103.5C 86.1667,103.5 88.8333,103.5 91.5,103.5C 91.5,102.167 91.5,100.833 91.5,99.5C 92.8333,99.5 94.1667,99.5 95.5,99.5C 95.8509,95.3164 96.5176,91.3164 97.5,87.5 Z"/></g>
<g><path style="opacity:0.988" fill="#859f9a" d="M 196.5,116.5 C 201.209,121.043 205.375,126.043 209,131.5C 213.665,146.527 209.165,157.693 195.5,165C 187.905,166.356 180.238,166.856 172.5,166.5C 173.398,165.842 174.398,165.176 175.5,164.5C 180.242,163.886 184.909,163.053 189.5,162C 186.118,161.824 182.785,161.324 179.5,160.5C 177.74,157.788 177.073,154.788 177.5,151.5C 182.167,151.5 186.833,151.5 191.5,151.5C 191.5,148.833 191.5,146.167 191.5,143.5C 194.167,143.5 196.833,143.5 199.5,143.5C 199.5,138.833 199.5,134.167 199.5,129.5C 201.359,129.539 202.692,128.706 203.5,127C 202.55,124.09 200.55,122.923 197.5,123.5C 197.688,125.103 197.188,126.437 196,127.5C 195.727,123.969 195.56,120.635 195.5,117.5C 195.5,116.833 195.833,116.5 196.5,116.5 Z"/></g>
<g><path style="opacity:0.991" fill="#bfdacf" d="M 41.5,163.5 C 45.6868,165.228 50.0202,166.562 54.5,167.5C 54.5,170.167 54.5,172.833 54.5,175.5C 53.5,175.5 52.5,175.5 51.5,175.5C 51.5,176.833 51.5,178.167 51.5,179.5C 50.1667,179.5 48.8333,179.5 47.5,179.5C 47.5,182.167 47.5,184.833 47.5,187.5C 46.1667,187.5 44.8333,187.5 43.5,187.5C 43.5,190.167 43.5,192.833 43.5,195.5C 42.1667,195.5 40.8333,195.5 39.5,195.5C 39.5,196.833 39.5,198.167 39.5,199.5C 38.1667,199.5 36.8333,199.5 35.5,199.5C 34.8333,202.167 34.1667,204.833 33.5,207.5C 32.1667,207.5 30.8333,207.5 29.5,207.5C 28.5992,211.154 27.5992,214.821 26.5,218.5C 24.1772,219.672 21.8439,219.672 19.5,218.5C 14.5639,213.062 9.39721,207.729 4,202.5C 1.87915,198.947 0.37915,195.28 -0.5,191.5C -0.5,189.167 -0.5,186.833 -0.5,184.5C 1.70535,174.454 7.70535,167.621 17.5,164C 25.4931,163.5 33.4931,163.334 41.5,163.5 Z"/></g>
<g><path style="opacity:0.998" fill="#99b3ab" d="M 143.5,189.5 C 144.63,191.315 145.296,193.315 145.5,195.5C 143.5,195.5 141.5,195.5 139.5,195.5C 139.5,196.833 139.5,198.167 139.5,199.5C 138.167,199.5 136.833,199.5 135.5,199.5C 135.5,200.833 135.5,202.167 135.5,203.5C 134.167,203.5 132.833,203.5 131.5,203.5C 131.577,206.012 130.577,208.012 128.5,209.5C 127.833,208.833 127.167,208.167 126.5,207.5C 123.327,210.847 121.66,214.847 121.5,219.5C 119.516,219.383 117.85,220.05 116.5,221.5C 115.016,219.718 114.016,217.718 113.5,215.5C 113.333,201.829 113.5,188.163 114,174.5C 116.053,170.708 119.219,169.542 123.5,171C 130.363,177.033 137.03,183.199 143.5,189.5 Z"/></g>
<g><path style="opacity:1" fill="#afc9c0" d="M 78.5,172.5 C 80.7488,173.08 82.4154,174.413 83.5,176.5C 83.5858,177.496 83.2524,178.329 82.5,179C 85.3774,181.387 88.0441,184.054 90.5,187C 88.1902,187.497 85.8568,187.663 83.5,187.5C 83.5,190.167 83.5,192.833 83.5,195.5C 82.1667,195.5 80.8333,195.5 79.5,195.5C 79.5,196.833 79.5,198.167 79.5,199.5C 78.5,199.5 77.5,199.5 76.5,199.5C 75.8333,202.167 75.1667,204.833 74.5,207.5C 73.5,207.5 72.5,207.5 71.5,207.5C 71.5,208.833 71.5,210.167 71.5,211.5C 70.1667,211.5 68.8333,211.5 67.5,211.5C 66.4106,215.686 64.7439,219.686 62.5,223.5C 60.9931,225.69 58.9931,227.024 56.5,227.5C 55.8333,230.167 55.1667,232.833 54.5,235.5C 53.5,235.5 52.5,235.5 51.5,235.5C 50.8333,238.167 50.1667,240.833 49.5,243.5C 47.8333,243.5 46.1667,243.5 44.5,243.5C 37.8333,237.5 31.5,231.167 25.5,224.5C 25.8966,223.475 26.5632,223.308 27.5,224C 29.3955,225.765 31.2288,227.598 33,229.5C 34.669,227.831 35.5023,225.831 35.5,223.5C 36.8333,223.5 38.1667,223.5 39.5,223.5C 39.5,222.167 39.5,220.833 39.5,219.5C 40.8333,219.5 42.1667,219.5 43.5,219.5C 43.5,218.167 43.5,216.833 43.5,215.5C 44.8333,215.5 46.1667,215.5 47.5,215.5C 47.6676,209.845 49.0009,204.512 51.5,199.5C 52.8333,199.5 54.1667,199.5 55.5,199.5C 55.5,198.167 55.5,196.833 55.5,195.5C 56.8333,195.5 58.1667,195.5 59.5,195.5C 59.5,192.833 59.5,190.167 59.5,187.5C 60.8333,187.5 62.1667,187.5 63.5,187.5C 63.5,184.833 63.5,182.167 63.5,179.5C 68.0932,179.227 70.7599,176.894 71.5,172.5C 73.8333,172.5 76.1667,172.5 78.5,172.5 Z"/></g>
<g><path style="opacity:1" fill="#b6d0c7" d="M 41.5,163.5 C 50.9971,163.499 60.3304,164.666 69.5,167C 72.8981,168.357 75.8981,170.19 78.5,172.5C 76.1667,172.5 73.8333,172.5 71.5,172.5C 70.7599,176.894 68.0932,179.227 63.5,179.5C 63.5,182.167 63.5,184.833 63.5,187.5C 62.1667,187.5 60.8333,187.5 59.5,187.5C 59.5,190.167 59.5,192.833 59.5,195.5C 58.1667,195.5 56.8333,195.5 55.5,195.5C 55.5,196.833 55.5,198.167 55.5,199.5C 54.1667,199.5 52.8333,199.5 51.5,199.5C 49.0009,204.512 47.6676,209.845 47.5,215.5C 46.1667,215.5 44.8333,215.5 43.5,215.5C 43.5,216.833 43.5,218.167 43.5,219.5C 42.1667,219.5 40.8333,219.5 39.5,219.5C 39.5,220.833 39.5,222.167 39.5,223.5C 38.1667,223.5 36.8333,223.5 35.5,223.5C 35.5023,225.831 34.669,227.831 33,229.5C 31.2288,227.598 29.3955,225.765 27.5,224C 26.5632,223.308 25.8966,223.475 25.5,224.5C 23.1667,222.833 21.1667,220.833 19.5,218.5C 21.8439,219.672 24.1772,219.672 26.5,218.5C 27.5992,214.821 28.5992,211.154 29.5,207.5C 30.8333,207.5 32.1667,207.5 33.5,207.5C 34.1667,204.833 34.8333,202.167 35.5,199.5C 36.8333,199.5 38.1667,199.5 39.5,199.5C 39.5,198.167 39.5,196.833 39.5,195.5C 40.8333,195.5 42.1667,195.5 43.5,195.5C 43.5,192.833 43.5,190.167 43.5,187.5C 44.8333,187.5 46.1667,187.5 47.5,187.5C 47.5,184.833 47.5,182.167 47.5,179.5C 48.8333,179.5 50.1667,179.5 51.5,179.5C 51.5,178.167 51.5,176.833 51.5,175.5C 52.5,175.5 53.5,175.5 54.5,175.5C 54.5,172.833 54.5,170.167 54.5,167.5C 50.0202,166.562 45.6868,165.228 41.5,163.5 Z"/></g>
<g><path style="opacity:1" fill="#a6c0b8" d="M 83.5,176.5 C 90.6684,182.497 95.0017,190.164 96.5,199.5C 95.5,199.5 94.5,199.5 93.5,199.5C 92.8333,202.167 92.1667,204.833 91.5,207.5C 90.325,207.281 89.325,207.614 88.5,208.5C 87.6258,210.747 87.2924,213.08 87.5,215.5C 86.1667,215.5 84.8333,215.5 83.5,215.5C 83.5,216.833 83.5,218.167 83.5,219.5C 82.1667,219.5 80.8333,219.5 79.5,219.5C 79.5,220.833 79.5,222.167 79.5,223.5C 78.5,223.5 77.5,223.5 76.5,223.5C 75.8333,226.167 75.1667,228.833 74.5,231.5C 73.5,231.5 72.5,231.5 71.5,231.5C 71.5,232.833 71.5,234.167 71.5,235.5C 70.1667,235.5 68.8333,235.5 67.5,235.5C 66.8333,238.167 66.1667,240.833 65.5,243.5C 64.1667,243.5 62.8333,243.5 61.5,243.5C 61.1667,246.5 59.5,248.167 56.5,248.5C 56.7947,250.735 56.4614,252.735 55.5,254.5C 51.5,251.167 47.8333,247.5 44.5,243.5C 46.1667,243.5 47.8333,243.5 49.5,243.5C 50.1667,240.833 50.8333,238.167 51.5,235.5C 52.5,235.5 53.5,235.5 54.5,235.5C 55.1667,232.833 55.8333,230.167 56.5,227.5C 58.9931,227.024 60.9931,225.69 62.5,223.5C 64.7439,219.686 66.4106,215.686 67.5,211.5C 68.8333,211.5 70.1667,211.5 71.5,211.5C 71.5,210.167 71.5,208.833 71.5,207.5C 72.5,207.5 73.5,207.5 74.5,207.5C 75.1667,204.833 75.8333,202.167 76.5,199.5C 77.5,199.5 78.5,199.5 79.5,199.5C 79.5,198.167 79.5,196.833 79.5,195.5C 80.8333,195.5 82.1667,195.5 83.5,195.5C 83.5,192.833 83.5,190.167 83.5,187.5C 85.8568,187.663 88.1902,187.497 90.5,187C 88.0441,184.054 85.3774,181.387 82.5,179C 83.2524,178.329 83.5858,177.496 83.5,176.5 Z"/></g>
<g><path style="opacity:1" fill="#8ca69f" d="M 161.5,211.5 C 160.167,211.5 158.833,211.5 157.5,211.5C 157.247,216.021 156.247,220.354 154.5,224.5C 152.5,225.167 150.5,225.833 148.5,226.5C 147.147,227.524 146.48,228.857 146.5,230.5C 144.194,230.993 141.861,231.326 139.5,231.5C 139.5,234.167 139.5,236.833 139.5,239.5C 138.167,239.5 136.833,239.5 135.5,239.5C 135.5,240.5 135.5,241.5 135.5,242.5C 134.167,242.5 132.833,242.5 131.5,242.5C 130.634,245.167 129.634,247.833 128.5,250.5C 127.167,249.167 125.833,249.167 124.5,250.5C 121.668,252.908 120.001,255.908 119.5,259.5C 118.167,259.5 116.833,259.5 115.5,259.5C 114.745,262.512 113.412,265.178 111.5,267.5C 110.167,267.5 108.833,267.5 107.5,267.5C 107.5,269.833 107.5,272.167 107.5,274.5C 104.833,275.167 102.167,275.833 99.5,276.5C 99.9592,281.81 98.9592,286.81 96.5,291.5C 95.8333,291.833 95.1667,292.167 94.5,292.5C 92.4084,290.395 90.0751,288.728 87.5,287.5C 85.5,286.167 83.8333,284.5 82.5,282.5C 84.7131,283.605 86.8797,283.605 89,282.5C 89.0621,278.852 88.8954,275.185 88.5,271.5C 89.5,271.5 90.5,271.5 91.5,271.5C 92.9297,267.054 94.9297,263.054 97.5,259.5C 101.536,258.777 105.536,257.777 109.5,256.5C 110.853,255.476 111.52,254.143 111.5,252.5C 114.691,252.14 116.358,250.306 116.5,247C 116.646,244.966 115.98,243.299 114.5,242C 117.028,240.983 117.028,239.816 114.5,238.5C 116.104,236.821 116.771,234.821 116.5,232.5C 118.488,232.827 120.488,233.16 122.5,233.5C 125.379,232.205 128.379,231.538 131.5,231.5C 131.5,228.833 131.5,226.167 131.5,223.5C 132.833,223.5 134.167,223.5 135.5,223.5C 135.5,220.833 135.5,218.167 135.5,215.5C 138.167,215.5 140.833,215.5 143.5,215.5C 143.5,214.167 143.5,212.833 143.5,211.5C 144.833,211.5 146.167,211.5 147.5,211.5C 147.5,210.167 147.5,208.833 147.5,207.5C 150.85,207.335 154.183,207.502 157.5,208C 159.544,208.498 160.878,209.665 161.5,211.5 Z"/></g>
<g><path style="opacity:0.999" fill="#9fb9b0" d="M 96.5,199.5 C 97.4907,205.979 97.824,212.646 97.5,219.5C 96.5176,223.316 95.8509,227.316 95.5,231.5C 94.1667,231.5 92.8333,231.5 91.5,231.5C 91.5,232.833 91.5,234.167 91.5,235.5C 90.1667,235.5 88.8333,235.5 87.5,235.5C 87.5,236.833 87.5,238.167 87.5,239.5C 86.1667,239.5 84.8333,239.5 83.5,239.5C 85.2382,245.927 82.9049,248.594 76.5,247.5C 75.8333,251.5 75.1667,255.5 74.5,259.5C 71.2819,259.651 70.9485,260.484 73.5,262C 70.8539,264.694 67.8539,265.194 64.5,263.5C 61.1667,260.833 58.1667,257.833 55.5,254.5C 56.4614,252.735 56.7947,250.735 56.5,248.5C 59.5,248.167 61.1667,246.5 61.5,243.5C 62.8333,243.5 64.1667,243.5 65.5,243.5C 66.1667,240.833 66.8333,238.167 67.5,235.5C 68.8333,235.5 70.1667,235.5 71.5,235.5C 71.5,234.167 71.5,232.833 71.5,231.5C 72.5,231.5 73.5,231.5 74.5,231.5C 75.1667,228.833 75.8333,226.167 76.5,223.5C 77.5,223.5 78.5,223.5 79.5,223.5C 79.5,222.167 79.5,220.833 79.5,219.5C 80.8333,219.5 82.1667,219.5 83.5,219.5C 83.5,218.167 83.5,216.833 83.5,215.5C 84.8333,215.5 86.1667,215.5 87.5,215.5C 87.2924,213.08 87.6258,210.747 88.5,208.5C 89.325,207.614 90.325,207.281 91.5,207.5C 92.1667,204.833 92.8333,202.167 93.5,199.5C 94.5,199.5 95.5,199.5 96.5,199.5 Z"/></g>
<g><path style="opacity:0.998" fill="#86a099" d="M 165.5,210.5 C 172.869,216.868 179.536,223.868 185.5,231.5C 183.5,231.5 181.5,231.5 179.5,231.5C 178.862,229.54 178.862,227.707 179.5,226C 178.207,225.51 176.873,225.343 175.5,225.5C 175.5,227.5 175.5,229.5 175.5,231.5C 174.167,231.5 172.833,231.5 171.5,231.5C 171.5,232.833 171.5,234.167 171.5,235.5C 168.833,235.5 166.167,235.5 163.5,235.5C 163.5,236.833 163.5,238.167 163.5,239.5C 159.63,240.799 155.63,241.466 151.5,241.5C 151.5,243.5 151.5,245.5 151.5,247.5C 149.5,247.5 147.5,247.5 145.5,247.5C 145.5,248.833 145.5,250.167 145.5,251.5C 144.167,251.5 142.833,251.5 141.5,251.5C 141.466,255.63 140.799,259.63 139.5,263.5C 136.833,263.5 134.167,263.5 131.5,263.5C 131.5,266.167 131.5,268.833 131.5,271.5C 128.5,271.5 125.5,271.5 122.5,271.5C 122.5,272.5 122.5,273.5 122.5,274.5C 120.263,275.449 117.929,276.116 115.5,276.5C 115.111,284.164 114.778,291.83 114.5,299.5C 110.601,299.965 106.767,300.632 103,301.5C 102.184,300.177 101.017,299.511 99.5,299.5C 95.1667,295.833 91.1667,291.833 87.5,287.5C 90.0751,288.728 92.4084,290.395 94.5,292.5C 95.1667,292.167 95.8333,291.833 96.5,291.5C 98.9592,286.81 99.9592,281.81 99.5,276.5C 102.167,275.833 104.833,275.167 107.5,274.5C 107.5,272.167 107.5,269.833 107.5,267.5C 108.833,267.5 110.167,267.5 111.5,267.5C 113.412,265.178 114.745,262.512 115.5,259.5C 116.833,259.5 118.167,259.5 119.5,259.5C 120.001,255.908 121.668,252.908 124.5,250.5C 125.833,249.167 127.167,249.167 128.5,250.5C 129.634,247.833 130.634,245.167 131.5,242.5C 132.833,242.5 134.167,242.5 135.5,242.5C 135.5,241.5 135.5,240.5 135.5,239.5C 136.833,239.5 138.167,239.5 139.5,239.5C 139.5,236.833 139.5,234.167 139.5,231.5C 141.861,231.326 144.194,230.993 146.5,230.5C 146.48,228.857 147.147,227.524 148.5,226.5C 150.5,225.833 152.5,225.167 154.5,224.5C 156.247,220.354 157.247,216.021 157.5,211.5C 158.833,211.5 160.167,211.5 161.5,211.5C 162.959,211.567 164.292,211.234 165.5,210.5 Z"/></g>
<g><path style="opacity:0.999" fill="#809994" d="M 185.5,231.5 C 187.833,233.167 189.833,235.167 191.5,237.5C 187.914,237.544 185.581,235.877 184.5,232.5C 183.401,236.179 182.401,239.846 181.5,243.5C 179.5,243.5 177.5,243.5 175.5,243.5C 175.5,244.833 175.5,246.167 175.5,247.5C 174.167,247.5 172.833,247.5 171.5,247.5C 171.5,250.167 171.5,252.833 171.5,255.5C 170.167,255.5 168.833,255.5 167.5,255.5C 167.5,256.833 167.5,258.167 167.5,259.5C 166.167,259.5 164.833,259.5 163.5,259.5C 163.5,260.833 163.5,262.167 163.5,263.5C 160.833,263.5 158.167,263.5 155.5,263.5C 155.5,264.833 155.5,266.167 155.5,267.5C 154.167,267.5 152.833,267.5 151.5,267.5C 151.5,268.833 151.5,270.167 151.5,271.5C 149.5,271.5 147.5,271.5 145.5,271.5C 144.833,274.167 144.167,276.833 143.5,279.5C 142.167,279.5 140.833,279.5 139.5,279.5C 139.5,281.5 139.5,283.5 139.5,285.5C 138.167,285.5 136.833,285.5 135.5,285.5C 135.5,286.833 135.5,288.167 135.5,289.5C 134.167,289.5 132.833,289.5 131.5,289.5C 131.5,291.5 131.5,293.5 131.5,295.5C 130.167,295.5 128.833,295.5 127.5,295.5C 127.5,296.833 127.5,298.167 127.5,299.5C 121.395,300.017 118.395,303.351 118.5,309.5C 117.5,309.5 116.5,309.5 115.5,309.5C 115.371,311.216 115.038,312.883 114.5,314.5C 109.167,309.833 104.167,304.833 99.5,299.5C 101.017,299.511 102.184,300.177 103,301.5C 106.767,300.632 110.601,299.965 114.5,299.5C 114.778,291.83 115.111,284.164 115.5,276.5C 117.929,276.116 120.263,275.449 122.5,274.5C 122.5,273.5 122.5,272.5 122.5,271.5C 125.5,271.5 128.5,271.5 131.5,271.5C 131.5,268.833 131.5,266.167 131.5,263.5C 134.167,263.5 136.833,263.5 139.5,263.5C 140.799,259.63 141.466,255.63 141.5,251.5C 142.833,251.5 144.167,251.5 145.5,251.5C 145.5,250.167 145.5,248.833 145.5,247.5C 147.5,247.5 149.5,247.5 151.5,247.5C 151.5,245.5 151.5,243.5 151.5,241.5C 155.63,241.466 159.63,240.799 163.5,239.5C 163.5,238.167 163.5,236.833 163.5,235.5C 166.167,235.5 168.833,235.5 171.5,235.5C 171.5,234.167 171.5,232.833 171.5,231.5C 172.833,231.5 174.167,231.5 175.5,231.5C 175.5,229.5 175.5,227.5 175.5,225.5C 176.873,225.343 178.207,225.51 179.5,226C 178.862,227.707 178.862,229.54 179.5,231.5C 181.5,231.5 183.5,231.5 185.5,231.5 Z"/></g>
<g><path style="opacity:0.987" fill="#99b3ac" d="M 97.5,219.5 C 97.3336,227.174 97.5003,234.841 98,242.5C 99.1065,245.113 100.94,246.78 103.5,247.5C 101.5,247.5 99.5,247.5 97.5,247.5C 97.5,248.833 97.5,250.167 97.5,251.5C 96.1667,251.5 94.8333,251.5 93.5,251.5C 93.5,252.833 93.5,254.167 93.5,255.5C 91.8333,255.5 90.1667,255.5 88.5,255.5C 88.1156,257.929 87.449,260.263 86.5,262.5C 84.2627,263.449 81.9294,264.116 79.5,264.5C 79.5,265.5 79.5,266.5 79.5,267.5C 77.6412,267.461 76.3079,268.294 75.5,270C 75.1304,271.61 75.7971,273.11 77.5,274.5C 77.1373,275.183 76.8039,275.85 76.5,276.5C 71.7923,272.793 67.7923,268.46 64.5,263.5C 67.8539,265.194 70.8539,264.694 73.5,262C 70.9485,260.484 71.2819,259.651 74.5,259.5C 75.1667,255.5 75.8333,251.5 76.5,247.5C 82.9049,248.594 85.2382,245.927 83.5,239.5C 84.8333,239.5 86.1667,239.5 87.5,239.5C 87.5,238.167 87.5,236.833 87.5,235.5C 88.8333,235.5 90.1667,235.5 91.5,235.5C 91.5,234.167 91.5,232.833 91.5,231.5C 92.8333,231.5 94.1667,231.5 95.5,231.5C 95.8509,227.316 96.5176,223.316 97.5,219.5 Z"/></g>
<g><path style="opacity:0.992" fill="#91aba5" d="M 143.5,189.5 C 150.86,196.528 158.193,203.528 165.5,210.5C 164.292,211.234 162.959,211.567 161.5,211.5C 160.878,209.665 159.544,208.498 157.5,208C 154.183,207.502 150.85,207.335 147.5,207.5C 147.5,208.833 147.5,210.167 147.5,211.5C 146.167,211.5 144.833,211.5 143.5,211.5C 143.5,212.833 143.5,214.167 143.5,215.5C 140.833,215.5 138.167,215.5 135.5,215.5C 135.5,218.167 135.5,220.833 135.5,223.5C 134.167,223.5 132.833,223.5 131.5,223.5C 131.5,226.167 131.5,228.833 131.5,231.5C 128.379,231.538 125.379,232.205 122.5,233.5C 120.488,233.16 118.488,232.827 116.5,232.5C 116.771,234.821 116.104,236.821 114.5,238.5C 117.028,239.816 117.028,240.983 114.5,242C 115.98,243.299 116.646,244.966 116.5,247C 116.358,250.306 114.691,252.14 111.5,252.5C 111.52,254.143 110.853,255.476 109.5,256.5C 105.536,257.777 101.536,258.777 97.5,259.5C 94.9297,263.054 92.9297,267.054 91.5,271.5C 90.5,271.5 89.5,271.5 88.5,271.5C 88.8954,275.185 89.0621,278.852 89,282.5C 86.8797,283.605 84.7131,283.605 82.5,282.5C 80.1667,280.833 78.1667,278.833 76.5,276.5C 76.8039,275.85 77.1373,275.183 77.5,274.5C 75.7971,273.11 75.1304,271.61 75.5,270C 76.3079,268.294 77.6412,267.461 79.5,267.5C 79.5,266.5 79.5,265.5 79.5,264.5C 81.9294,264.116 84.2627,263.449 86.5,262.5C 87.449,260.263 88.1156,257.929 88.5,255.5C 90.1667,255.5 91.8333,255.5 93.5,255.5C 93.5,254.167 93.5,252.833 93.5,251.5C 94.8333,251.5 96.1667,251.5 97.5,251.5C 97.5,250.167 97.5,248.833 97.5,247.5C 99.5,247.5 101.5,247.5 103.5,247.5C 108.062,247.639 111.229,245.639 113,241.5C 113.5,232.84 113.666,224.173 113.5,215.5C 114.016,217.718 115.016,219.718 116.5,221.5C 117.85,220.05 119.516,219.383 121.5,219.5C 121.66,214.847 123.327,210.847 126.5,207.5C 127.167,208.167 127.833,208.833 128.5,209.5C 130.577,208.012 131.577,206.012 131.5,203.5C 132.833,203.5 134.167,203.5 135.5,203.5C 135.5,202.167 135.5,200.833 135.5,199.5C 136.833,199.5 138.167,199.5 139.5,199.5C 139.5,198.167 139.5,196.833 139.5,195.5C 141.5,195.5 143.5,195.5 145.5,195.5C 145.296,193.315 144.63,191.315 143.5,189.5 Z"/></g>
<g><path style="opacity:0.983" fill="#728c87" d="M 202.5,262.5 C 203.166,270.159 203.5,277.993 203.5,286C 203.595,295.548 203.095,305.048 202,314.5C 199.248,322.753 193.748,328.087 185.5,330.5C 171.5,330.5 157.5,330.5 143.5,330.5C 143.915,326.954 143.915,323.287 143.5,319.5C 144.833,319.5 146.167,319.5 147.5,319.5C 147.5,316.833 147.5,314.167 147.5,311.5C 150.167,311.5 152.833,311.5 155.5,311.5C 155.5,308.833 155.5,306.167 155.5,303.5C 156.833,303.5 158.167,303.5 159.5,303.5C 159.5,300.833 159.5,298.167 159.5,295.5C 162.167,295.5 164.833,295.5 167.5,295.5C 167.5,292.833 167.5,290.167 167.5,287.5C 168.833,287.5 170.167,287.5 171.5,287.5C 171.5,284.833 171.5,282.167 171.5,279.5C 175.5,279.5 179.5,279.5 183.5,279.5C 183.5,278.167 183.5,276.833 183.5,275.5C 186.167,275.5 188.833,275.5 191.5,275.5C 191.5,274.167 191.5,272.833 191.5,271.5C 194.167,271.5 196.833,271.5 199.5,271.5C 199.187,268.753 199.52,266.086 200.5,263.5C 201.183,263.137 201.85,262.804 202.5,262.5 Z"/></g>
<g><path style="opacity:0.998" fill="#78928e" d="M 191.5,237.5 C 198.13,244.435 201.796,252.768 202.5,262.5C 201.85,262.804 201.183,263.137 200.5,263.5C 199.52,266.086 199.187,268.753 199.5,271.5C 196.833,271.5 194.167,271.5 191.5,271.5C 191.5,272.833 191.5,274.167 191.5,275.5C 188.833,275.5 186.167,275.5 183.5,275.5C 183.5,276.833 183.5,278.167 183.5,279.5C 179.5,279.5 175.5,279.5 171.5,279.5C 171.5,282.167 171.5,284.833 171.5,287.5C 170.167,287.5 168.833,287.5 167.5,287.5C 167.5,290.167 167.5,292.833 167.5,295.5C 164.833,295.5 162.167,295.5 159.5,295.5C 159.5,298.167 159.5,300.833 159.5,303.5C 158.167,303.5 156.833,303.5 155.5,303.5C 155.5,306.167 155.5,308.833 155.5,311.5C 152.833,311.5 150.167,311.5 147.5,311.5C 147.5,314.167 147.5,316.833 147.5,319.5C 146.167,319.5 144.833,319.5 143.5,319.5C 143.915,323.287 143.915,326.954 143.5,330.5C 142.833,330.5 142.167,330.5 141.5,330.5C 130.544,328.52 121.544,323.187 114.5,314.5C 115.038,312.883 115.371,311.216 115.5,309.5C 116.5,309.5 117.5,309.5 118.5,309.5C 118.395,303.351 121.395,300.017 127.5,299.5C 127.5,298.167 127.5,296.833 127.5,295.5C 128.833,295.5 130.167,295.5 131.5,295.5C 131.5,293.5 131.5,291.5 131.5,289.5C 132.833,289.5 134.167,289.5 135.5,289.5C 135.5,288.167 135.5,286.833 135.5,285.5C 136.833,285.5 138.167,285.5 139.5,285.5C 139.5,283.5 139.5,281.5 139.5,279.5C 140.833,279.5 142.167,279.5 143.5,279.5C 144.167,276.833 144.833,274.167 145.5,271.5C 147.5,271.5 149.5,271.5 151.5,271.5C 151.5,270.167 151.5,268.833 151.5,267.5C 152.833,267.5 154.167,267.5 155.5,267.5C 155.5,266.167 155.5,264.833 155.5,263.5C 158.167,263.5 160.833,263.5 163.5,263.5C 163.5,262.167 163.5,260.833 163.5,259.5C 164.833,259.5 166.167,259.5 167.5,259.5C 167.5,258.167 167.5,256.833 167.5,255.5C 168.833,255.5 170.167,255.5 171.5,255.5C 171.5,252.833 171.5,250.167 171.5,247.5C 172.833,247.5 174.167,247.5 175.5,247.5C 175.5,246.167 175.5,244.833 175.5,243.5C 177.5,243.5 179.5,243.5 181.5,243.5C 182.401,239.846 183.401,236.179 184.5,232.5C 185.581,235.877 187.914,237.544 191.5,237.5 Z"/></g>
</svg>
