<?xml version="1.0" encoding="UTF-8"?><svg width="248" height="56" viewBox="0 0 248 56" fill="none" xmlns="http://www.w3.org/2000/svg">
<path fill-rule="evenodd" clip-rule="evenodd" d="M12.7179 17.3954V41.1163C5.13315 37.4077 0 30.1305 0 21.8037V17.4653H12.7179V17.3954Z" fill="#9DB6FF"/>
<path fill-rule="evenodd" clip-rule="evenodd" d="M29.6154 7.90698V43.4675C27.6234 43.984 25.4782 44.2791 23.2564 44.2791C21.0346 44.2791 18.966 43.984 16.8975 43.4675V7.90698H29.6154Z" fill="#4370F5"/>
<path fill-rule="evenodd" clip-rule="evenodd" d="M33.3846 0V41.1163C40.9694 37.3132 46.1026 29.8506 46.1026 21.3116V0H33.3846Z" fill="#002EB9"/>
<path fill-rule="evenodd" clip-rule="evenodd" d="M57.2307 42.6977V0H84.2564V6.71167H64.681V18.0644H82.4303V24.6333H64.681V35.986H84.2564V42.6977H57.2307Z" fill="#001943"/>
<path fill-rule="evenodd" clip-rule="evenodd" d="M104.618 43H97.733L86 14H93.5878L101.246 34.7445L108.763 14H116L104.618 43Z" fill="#001943"/>
<path fill-rule="evenodd" clip-rule="evenodd" d="M137.192 25.1547C137.049 21.8468 134.765 18.8835 129.984 18.8835C125.56 18.8835 123.062 22.1225 122.848 25.1547H137.192ZM143.9 34.3202C142.33 39.282 137.691 43.2791 130.627 43.2791C122.706 43.2791 115.641 37.697 115.641 28.118C115.641 19.1591 122.492 13.2325 129.913 13.2325C138.976 13.2325 144.256 19.0213 144.256 27.9112C144.256 29.0139 144.114 29.9786 144.042 30.0476H122.634C122.848 34.3202 126.274 37.4214 130.627 37.4214C134.837 37.4214 136.978 35.285 137.977 32.4596L143.9 34.3202Z" fill="#001943"/>
<path fill-rule="evenodd" clip-rule="evenodd" d="M155.122 42.6977H147.846V13.5035H154.9V17.4103C156.904 14.0718 160.542 12.6512 163.883 12.6512C171.308 12.6512 174.872 17.8365 174.872 24.2294V42.6977H167.596V25.4369C167.596 21.8143 165.888 18.973 161.359 18.973C157.201 18.973 155.048 22.0274 155.048 25.8631L155.122 42.6977Z" fill="#001943"/>
<path fill-rule="evenodd" clip-rule="evenodd" d="M181.231 28.2632V0H188.344V27.8284C188.344 33.9159 191.616 37.322 197.021 37.322C202.498 37.322 205.699 33.9884 205.699 27.8284V0H213.026V28.2632C213.026 38.6989 206.055 44.2791 197.093 44.2791C188.201 44.2791 181.231 38.6989 181.231 28.2632Z" fill="#4370F5"/>
<path fill-rule="evenodd" clip-rule="evenodd" d="M232.861 20.3894C228.203 20.3894 224.782 23.9985 224.782 29.3769C224.782 34.8968 228.13 38.506 232.861 38.506C237.592 38.506 240.94 34.8968 240.94 29.3769C240.867 23.9985 237.665 20.3894 232.861 20.3894ZM217.795 55.3488V14.8695H224.637V18.8325C226.092 16.3556 229.513 14.2325 234.171 14.2325C242.978 14.2325 248 20.814 248 29.3769C248 38.0814 242.541 44.6628 233.953 44.6628C229.659 44.6628 226.383 42.8936 224.855 40.6291V55.2781L217.795 55.3488Z" fill="#4370F5"/>
</svg>
