<?xml version="1.0" encoding="UTF-8"?>
<!DOCTYPE svg PUBLIC "-//W3C//DTD SVG 1.1//EN" "http://www.w3.org/Graphics/SVG/1.1/DTD/svg11.dtd">
<svg xmlns="http://www.w3.org/2000/svg" version="1.1" width="691px" height="361px" style="shape-rendering:geometricPrecision; text-rendering:geometricPrecision; image-rendering:optimizeQuality; fill-rule:evenodd; clip-rule:evenodd" xmlns:xlink="http://www.w3.org/1999/xlink">
<g><path style="opacity:1" fill="#383838" d="M 270.5,147.5 C 270.427,149.027 271.094,150.027 272.5,150.5C 280.609,172.852 280.443,195.186 272,217.5C 256.253,247.431 231.253,262.431 197,262.5C 138.891,257.387 112.225,225.72 117,167.5C 120.568,149.177 129.401,134.177 143.5,122.5C 145.027,122.573 146.027,121.906 146.5,120.5C 156.923,112.854 168.589,108.021 181.5,106C 207.075,102.32 230.408,107.653 251.5,122C 256.339,126.506 260.839,131.339 265,136.5C 267.393,139.952 269.226,143.619 270.5,147.5 Z M 207.5,139.5 C 208.93,140.537 210.597,141.204 212.5,141.5C 223.891,146.558 231.891,154.892 236.5,166.5C 236.402,168.553 237.069,170.22 238.5,171.5C 238.666,179.507 238.5,187.507 238,195.5C 236.526,198.756 235.36,202.089 234.5,205.5C 233.094,205.973 232.427,206.973 232.5,208.5C 225.752,219.241 216.085,225.575 203.5,227.5C 196.804,227.609 190.137,227.276 183.5,226.5C 181.711,225.123 179.711,224.123 177.5,223.5C 176.71,222.599 175.71,221.932 174.5,221.5C 170.843,218.842 167.509,215.842 164.5,212.5C 164.573,210.973 163.906,209.973 162.5,209.5C 162.34,207.847 161.674,206.514 160.5,205.5C 153.31,188.777 154.143,172.443 163,156.5C 174.268,141.905 189.101,136.238 207.5,139.5 Z"/></g>
<g><path style="opacity:1" fill="#393939" d="M 42.5,257.5 C 41.5015,218.67 41.1681,179.67 41.5,140.5C 27.7507,140.619 14.084,140.619 0.5,140.5C 0.825725,132.316 0.492391,124.316 -0.5,116.5C -0.5,115.5 -0.5,114.5 -0.5,113.5C 0.451145,112.081 0.784479,110.415 0.5,108.5C 40.5014,108.333 80.5014,108.5 120.5,109C 121.833,119.333 121.833,129.667 120.5,140C 106.504,140.5 92.504,140.667 78.5,140.5C 78.5,179.833 78.5,219.167 78.5,258.5C 66.3217,258.828 54.3217,258.495 42.5,257.5 Z"/></g>
<g><path style="opacity:0.999" fill="#343434" d="M 343.5,110.5 C 354.833,110.5 366.167,110.5 377.5,110.5C 377.5,159.167 377.5,207.833 377.5,256.5C 366.167,256.5 354.833,256.5 343.5,256.5C 343.5,207.833 343.5,159.167 343.5,110.5 Z"/></g>
<g><path style="opacity:0.999" fill="#363636" d="M 463.5,109.5 C 478.411,110.008 490.911,115.675 501,126.5C 508.023,138.319 509.023,150.652 504,163.5C 499.439,170.569 493.272,175.569 485.5,178.5C 484.624,178.369 483.957,178.702 483.5,179.5C 484.325,180.386 485.325,180.719 486.5,180.5C 503.273,185.611 512.273,196.945 513.5,214.5C 512.452,234.041 502.786,247.208 484.5,254C 478.004,256.048 471.338,257.214 464.5,257.5C 442.167,257.5 419.833,257.5 397.5,257.5C 397.5,208.167 397.5,158.833 397.5,109.5C 419.5,109.5 441.5,109.5 463.5,109.5 Z M 456.5,139.5 C 459.221,139.963 461.888,140.629 464.5,141.5C 464.973,142.906 465.973,143.573 467.5,143.5C 472.752,151.378 471.752,158.544 464.5,165C 454.078,168.141 443.411,169.308 432.5,168.5C 432.5,158.833 432.5,149.167 432.5,139.5C 440.5,139.5 448.5,139.5 456.5,139.5 Z M 432.5,195.5 C 441.173,195.334 449.84,195.5 458.5,196C 474.303,197.786 479.137,205.952 473,220.5C 468.334,225.609 462.5,227.942 455.5,227.5C 447.833,227.5 440.167,227.5 432.5,227.5C 432.5,216.833 432.5,206.167 432.5,195.5 Z"/></g>
<g><path style="opacity:1" fill="#393939" d="M 526.5,109.5 C 537.5,109.5 548.5,109.5 559.5,109.5C 560.833,158.833 560.833,208.167 559.5,257.5C 559.667,219.499 559.5,181.499 559,143.5C 558.5,181.165 558.333,218.832 558.5,256.5C 547.167,256.5 535.833,256.5 524.5,256.5C 523.845,207.283 524.512,158.283 526.5,109.5 Z"/></g>
<g><path style="opacity:1" fill="#343434" d="M 569.5,109.5 C 609.167,109.5 648.833,109.5 688.5,109.5C 688.5,119.833 688.5,130.167 688.5,140.5C 674.914,140.891 661.247,140.891 647.5,140.5C 646.501,179.33 646.168,218.33 646.5,257.5C 634.833,257.5 623.167,257.5 611.5,257.5C 611.832,218.33 611.499,179.33 610.5,140.5C 598.207,141.209 585.874,141.209 573.5,140.5C 572.432,139.566 571.099,139.232 569.5,139.5C 569.5,129.5 569.5,119.5 569.5,109.5 Z"/></g>
<g><path style="opacity:0.858" fill="#383838" d="M 343.5,110.5 C 354.988,109.505 366.655,109.172 378.5,109.5C 379.833,158.833 379.833,208.167 378.5,257.5C 366.655,257.828 354.988,257.495 343.5,256.5C 354.833,256.5 366.167,256.5 377.5,256.5C 377.5,207.833 377.5,159.167 377.5,110.5C 366.167,110.5 354.833,110.5 343.5,110.5 Z"/></g>
<g><path style="opacity:0.212" fill="#b1b1b1" d="M 146.5,120.5 C 146.027,121.906 145.027,122.573 143.5,122.5C 143.973,121.094 144.973,120.427 146.5,120.5 Z"/></g>
<g><path style="opacity:0.124" fill="#5c5c5c" d="M 568.5,109.5 C 568.833,109.5 569.167,109.5 569.5,109.5C 569.5,119.5 569.5,129.5 569.5,139.5C 571.099,139.232 572.432,139.566 573.5,140.5C 571.833,140.5 570.167,140.5 568.5,140.5C 568.5,130.167 568.5,119.833 568.5,109.5 Z"/></g>
<g><path style="opacity:0.184" fill="#9f9f9f" d="M 568.5,109.5 C 608.663,108.501 648.997,108.168 689.5,108.5C 689.828,119.346 689.494,130.013 688.5,140.5C 688.5,130.167 688.5,119.833 688.5,109.5C 648.833,109.5 609.167,109.5 569.5,109.5C 569.167,109.5 568.833,109.5 568.5,109.5 Z"/></g>
<g><path style="opacity:0.098" fill="#a9a9a9" d="M 207.5,139.5 C 209.698,139.12 211.365,139.787 212.5,141.5C 210.597,141.204 208.93,140.537 207.5,139.5 Z"/></g>
<g><path style="opacity:0.856" fill="#232323" d="M 42.5,257.5 C 42.3333,218.165 42.5,178.832 43,139.5C 43.5,178.499 43.6667,217.499 43.5,256.5C 53.0834,256.818 62.5834,256.485 72,255.5C 73.7337,256.249 75.567,256.749 77.5,257C 65.8381,257.5 54.1714,257.667 42.5,257.5 Z"/></g>
<g><path style="opacity:0.141" fill="#b1b1b1" d="M 464.5,141.5 C 466.027,141.427 467.027,142.094 467.5,143.5C 465.973,143.573 464.973,142.906 464.5,141.5 Z"/></g>
<g><path style="opacity:0.09" fill="#bebebe" d="M 270.5,147.5 C 271.906,147.973 272.573,148.973 272.5,150.5C 271.094,150.027 270.427,149.027 270.5,147.5 Z"/></g>
<g><path style="opacity:0.059" fill="#adadad" d="M 456.5,139.5 C 448.5,139.5 440.5,139.5 432.5,139.5C 432.5,149.167 432.5,158.833 432.5,168.5C 431.506,158.681 431.173,148.681 431.5,138.5C 440.017,138.174 448.35,138.507 456.5,139.5 Z"/></g>
<g><path style="opacity:0.437" fill="#8a8a8a" d="M 463.5,109.5 C 441.5,109.5 419.5,109.5 397.5,109.5C 397.5,158.833 397.5,208.167 397.5,257.5C 419.833,257.5 442.167,257.5 464.5,257.5C 442.006,258.497 419.339,258.831 396.5,258.5C 396.5,208.5 396.5,158.5 396.5,108.5C 419.006,108.169 441.34,108.503 463.5,109.5 Z"/></g>
<g><path style="opacity:0.457" fill="#797979" d="M 378.5,109.5 C 366.655,109.172 354.988,109.505 343.5,110.5C 343.5,159.167 343.5,207.833 343.5,256.5C 354.988,257.495 366.655,257.828 378.5,257.5C 366.678,258.495 354.678,258.828 342.5,258.5C 342.5,208.5 342.5,158.5 342.5,108.5C 354.678,108.172 366.678,108.505 378.5,109.5 Z"/></g>
<g><path style="opacity:0.157" fill="#a6a6a6" d="M 236.5,166.5 C 237.931,167.78 238.598,169.447 238.5,171.5C 237.069,170.22 236.402,168.553 236.5,166.5 Z"/></g>
<g><path style="opacity:0.114" fill="#979797" d="M 288.5,109.5 C 300.655,108.505 312.989,108.171 325.5,108.5C 325.5,158.5 325.5,208.5 325.5,258.5C 312.989,258.829 300.655,258.495 288.5,257.5C 300.5,257.5 312.5,257.5 324.5,257.5C 324.5,208.167 324.5,158.833 324.5,109.5C 312.5,109.5 300.5,109.5 288.5,109.5 Z"/></g>
<g><path style="opacity:0.083" fill="#b9b9b9" d="M 559.5,109.5 C 548.5,109.5 537.5,109.5 526.5,109.5C 525.5,109.5 524.5,109.5 523.5,109.5C 523.5,158.833 523.5,208.167 523.5,257.5C 535.5,257.5 547.5,257.5 559.5,257.5C 547.345,258.495 535.011,258.829 522.5,258.5C 522.5,208.5 522.5,158.5 522.5,108.5C 535.011,108.171 547.345,108.505 559.5,109.5 Z"/></g>
<g><path style="opacity:0.057" fill="#c1c1c1" d="M 485.5,178.5 C 485.833,179.167 486.167,179.833 486.5,180.5C 485.325,180.719 484.325,180.386 483.5,179.5C 483.957,178.702 484.624,178.369 485.5,178.5 Z"/></g>
<g><path style="opacity:0.22" fill="#a9a9a9" d="M 610.5,140.5 C 611.499,179.33 611.832,218.33 611.5,257.5C 623.167,257.5 634.833,257.5 646.5,257.5C 646.168,218.33 646.501,179.33 647.5,140.5C 647.5,179.833 647.5,219.167 647.5,258.5C 635.167,258.5 622.833,258.5 610.5,258.5C 610.5,219.167 610.5,179.833 610.5,140.5 Z"/></g>
<g><path style="opacity:0.868" fill="#2f2f2f" d="M 288.5,109.5 C 300.5,109.5 312.5,109.5 324.5,109.5C 324.5,158.833 324.5,208.167 324.5,257.5C 312.5,257.5 300.5,257.5 288.5,257.5C 288.5,208.167 288.5,158.833 288.5,109.5 Z"/></g>
<g><path style="opacity:1" fill="#343434" d="M 290.5,110.5 C 301.5,110.5 312.5,110.5 323.5,110.5C 323.5,159.167 323.5,207.833 323.5,256.5C 312.34,256.369 301.34,256.369 290.5,256.5C 290.5,207.833 290.5,159.167 290.5,110.5 Z"/></g>
<g><path style="opacity:0.141" fill="#b4b4b4" d="M 234.5,205.5 C 234.573,207.027 233.906,208.027 232.5,208.5C 232.427,206.973 233.094,205.973 234.5,205.5 Z"/></g>
<g><path style="opacity:0.067" fill="#cacaca" d="M 160.5,205.5 C 161.674,206.514 162.34,207.847 162.5,209.5C 160.896,208.713 160.229,207.38 160.5,205.5 Z"/></g>
<g><path style="opacity:0.125" fill="#b3b3b3" d="M 162.5,209.5 C 163.906,209.973 164.573,210.973 164.5,212.5C 163.094,212.027 162.427,211.027 162.5,209.5 Z"/></g>
<g><path style="opacity:0.035" fill="#bbbbbb" d="M 174.5,221.5 C 175.71,221.932 176.71,222.599 177.5,223.5C 175.821,223.715 174.821,223.048 174.5,221.5 Z"/></g>
<g><path style="opacity:0.09" fill="#afafaf" d="M 183.5,226.5 C 190.137,227.276 196.804,227.609 203.5,227.5C 201.022,228.164 198.355,228.497 195.5,228.5C 191.223,228.663 187.223,227.997 183.5,226.5 Z"/></g>
<g><path style="opacity:0.022" fill="#dadada" d="M 432.5,195.5 C 432.5,206.167 432.5,216.833 432.5,227.5C 440.167,227.5 447.833,227.5 455.5,227.5C 447.684,228.492 439.684,228.826 431.5,228.5C 431.172,217.321 431.505,206.321 432.5,195.5 Z"/></g>
<g><path style="opacity:0.684" fill="#252525" d="M 526.5,109.5 C 524.512,158.283 523.845,207.283 524.5,256.5C 535.833,256.5 547.167,256.5 558.5,256.5C 558.333,218.832 558.5,181.165 559,143.5C 559.5,181.499 559.667,219.499 559.5,257.5C 547.5,257.5 535.5,257.5 523.5,257.5C 523.5,208.167 523.5,158.833 523.5,109.5C 524.5,109.5 525.5,109.5 526.5,109.5 Z"/></g>
</svg>
