<?xml version="1.0" encoding="utf-8"?>
<!-- Generator: Adobe Illustrator 28.2.0, SVG Export Plug-In . SVG Version: 6.00 Build 0)  -->
<svg version="1.1" id="Layer_1" xmlns="http://www.w3.org/2000/svg" xmlns:xlink="http://www.w3.org/1999/xlink" x="0px" y="0px"
	 viewBox="0 0 106 27" style="enable-background:new 0 0 106 27;" xml:space="preserve">
<style type="text/css">
	.st0{fill:#FD243E;}
	.st1{fill:#FFFFFF;}
</style>
<path d="M38,9.4v9.9h2.3V9.4H44V7.5h-9.6v1.9C34.3,9.4,38,9.4,38,9.4z M43.8,22.2h0.9c2.2,0,2.6-0.4,3.7-3.1l3.2-8.5h-2.3l-2,6.3
	l-2-6.3h-2.5l3.4,8.8l-0.1,0.2c-0.4,0.9-0.7,0.9-1.5,0.9h-0.8C43.8,20.5,43.8,22.2,43.8,22.2z M52.7,22.2h2.3v-4
	c0.6,1,1.6,1.3,2.5,1.3c2.1,0,3.8-1.8,3.8-4.6c0-2.8-1.7-4.6-3.8-4.6c-1.1,0-2.1,0.5-2.5,1.3v-1.1h-2.3
	C52.7,10.6,52.7,22.2,52.7,22.2z M58.9,15c0,1.7-0.8,2.9-2,2.9c-1.2,0-2.1-1.1-2.1-2.9c0-1.8,0.8-2.9,2.1-2.9
	C58,12.1,58.9,13.3,58.9,15z M64.5,15.6H71c0.1-3.1-1.6-5.2-4.3-5.2c-2.6,0-4.4,1.9-4.4,4.6c0,2.5,1.6,4.6,4.5,4.6
	c2.4,0,3.7-1.5,4.1-2.8h-2.3c-0.5,0.8-1.2,1-1.8,1C65.7,17.8,64.6,17.1,64.5,15.6z M64.6,14c0.2-1.5,1.3-2,2.1-2c0.9,0,2,0.5,2,2
	H64.6z M72.9,10.1v0.5h-1.2v1.6h1.2v7.2h2.3v-7.2h1.8v-1.6h-1.8v-0.4c0-0.8,0.2-1,1.3-1h0.4V7.5h-0.8C74,7.5,72.9,7.8,72.9,10.1z
	 M80.4,19.6c1.3,0,2.3-0.4,2.9-1.3c0,0.4,0.1,0.8,0.1,1.1h2.1c-0.2-0.7-0.3-1.5-0.3-2.9c0-0.8,0-2,0-2.2c0-3-1.7-3.9-3.8-3.9
	c-2.3,0-3.7,1.3-3.9,3h2.1c0-1,0.8-1.4,1.6-1.4c0.9,0,1.7,0.5,1.7,1.8v0.1c-3.4,0.4-5.8,1-5.8,3.1C77.2,18.6,78.7,19.6,80.4,19.6
	L80.4,19.6z M83.1,15.3V16c0,1.3-0.6,2-2,2c-1,0-1.5-0.5-1.5-1.2C79.5,15.9,80.5,15.6,83.1,15.3z M95,13.6c-0.3-2.2-2.2-3.2-4-3.2
	c-2.6,0-4.4,1.9-4.4,4.6c0,2.6,1.7,4.6,4.3,4.6c1.8,0,3.6-0.8,4.2-3.2h-2.2c-0.3,1.1-1.1,1.5-1.9,1.5c-1.2,0-2.1-1-2.1-2.9
	c0-1.8,0.9-2.8,2.1-2.8c0.8,0,1.7,0.6,1.8,1.5H95z M98.1,15.6h6.5c0.1-3.1-1.6-5.2-4.3-5.2c-2.6,0-4.4,1.9-4.4,4.6
	c0,2.5,1.6,4.6,4.5,4.6c2.4,0,3.7-1.5,4.1-2.8h-2.3c-0.5,0.8-1.2,1-1.8,1C99.3,17.8,98.2,17.1,98.1,15.6z M98.2,14
	c0.2-1.5,1.3-2,2.1-2c0.9,0,2,0.5,2,2H98.2z"/>
<path class="st0" d="M1.4,0h26.5v26.5H1.4V0z"/>
<path class="st1" d="M10.8,6.4H8.2v12.8h2.6V6.4z"/>
</svg>
